# Blender v2.82 (sub 7) OBJ File: 'pixel.blend'
# www.blender.org
mtllib pixel.mtl
o Plane
v 0.040130 0.040000 -0.050624
v 0.040130 0.050000 -0.040624
v 0.050130 0.040000 -0.040624
v 0.040130 0.044993 -0.049288
v 0.045123 0.040000 -0.049288
v 0.044912 0.044782 -0.047991
v 0.045123 0.048664 -0.040624
v 0.040130 0.048664 -0.045618
v 0.044912 0.047366 -0.045406
v 0.048794 0.040000 -0.045618
v 0.048794 0.044993 -0.040624
v 0.047496 0.044782 -0.045406
v -0.039870 0.040000 -0.050624
v -0.049870 0.040000 -0.040624
v -0.039870 0.050000 -0.040624
v -0.044863 0.040000 -0.049288
v -0.039870 0.044993 -0.049288
v -0.044652 0.044782 -0.047991
v -0.048534 0.044993 -0.040624
v -0.048534 0.040000 -0.045618
v -0.047236 0.044782 -0.045406
v -0.039870 0.048664 -0.045618
v -0.044863 0.048664 -0.040624
v -0.044652 0.047366 -0.045406
v -0.049870 0.040000 0.040114
v -0.039870 0.040000 0.050113
v -0.039870 0.050000 0.040114
v -0.048534 0.040000 0.045107
v -0.048534 0.044993 0.040114
v -0.047236 0.044782 0.044896
v -0.039870 0.044993 0.048778
v -0.044863 0.040000 0.048778
v -0.044652 0.044782 0.047480
v -0.044863 0.048664 0.040114
v -0.039870 0.048664 0.045107
v -0.044652 0.047366 0.044896
v 0.050130 0.040000 0.040114
v 0.040130 0.050000 0.040114
v 0.040130 0.040000 0.050113
v 0.048794 0.044993 0.040114
v 0.048794 0.040000 0.045107
v 0.047496 0.044782 0.044896
v 0.040130 0.048664 0.045107
v 0.045123 0.048664 0.040114
v 0.044912 0.047366 0.044896
v 0.045123 0.040000 0.048778
v 0.040130 0.044993 0.048778
v 0.044912 0.044782 0.047480
v 0.040130 -0.040000 -0.050624
v 0.050130 -0.040000 -0.040624
v 0.040130 -0.050000 -0.040624
v 0.045123 -0.040000 -0.049288
v 0.040130 -0.044993 -0.049288
v 0.044912 -0.044782 -0.047991
v 0.048794 -0.044993 -0.040624
v 0.048794 -0.040000 -0.045618
v 0.047496 -0.044782 -0.045406
v 0.040130 -0.048664 -0.045618
v 0.045123 -0.048664 -0.040624
v 0.044912 -0.047366 -0.045406
v -0.039870 -0.040000 -0.050624
v -0.039870 -0.050000 -0.040624
v -0.049870 -0.040000 -0.040624
v -0.039870 -0.044993 -0.049288
v -0.044863 -0.040000 -0.049288
v -0.044652 -0.044782 -0.047991
v -0.044863 -0.048664 -0.040624
v -0.039870 -0.048664 -0.045618
v -0.044652 -0.047366 -0.045406
v -0.048534 -0.040000 -0.045618
v -0.048534 -0.044993 -0.040624
v -0.047236 -0.044782 -0.045406
v -0.049870 -0.040000 0.040114
v -0.039870 -0.050000 0.040114
v -0.039870 -0.040000 0.050113
v -0.048534 -0.044993 0.040114
v -0.048534 -0.040000 0.045107
v -0.047236 -0.044782 0.044896
v -0.039870 -0.048664 0.045107
v -0.044863 -0.048664 0.040114
v -0.044652 -0.047366 0.044896
v -0.044863 -0.040000 0.048778
v -0.039870 -0.044993 0.048778
v -0.044652 -0.044782 0.047480
v 0.050130 -0.040000 0.040114
v 0.040130 -0.040000 0.050113
v 0.040130 -0.050000 0.040114
v 0.048794 -0.040000 0.045107
v 0.048794 -0.044993 0.040114
v 0.047496 -0.044782 0.044896
v 0.040130 -0.044993 0.048778
v 0.045123 -0.040000 0.048778
v 0.044912 -0.044782 0.047480
v 0.045123 -0.048664 0.040114
v 0.040130 -0.048664 0.045107
v 0.044912 -0.047366 0.044896
vt 0.538462 0.987592
vt 0.538462 0.887408
vt 0.538462 0.887408
vt 0.538462 0.987592
vt 0.469231 0.887409
vt 0.530769 0.887408
vt 0.530769 0.987592
vt 0.469231 0.987592
vt 0.530769 0.875000
vt 0.469231 0.875000
vt 0.469231 0.875000
vt 0.530769 0.875000
vt 0.461538 0.887408
vt 0.461538 0.987592
vt 0.461538 0.987592
vt 0.461538 0.887408
vt 0.469231 0.887409
vt 0.469231 0.987592
vt 0.530769 0.987592
vt 0.530769 0.887408
vt 0.530769 1.000000
vt 0.530769 1.000000
vt 0.534448 1.000000
vt 0.534610 1.000000
vt 0.530769 0.993788
vt 0.534448 0.993525
vt 0.534610 0.987592
vt 0.538461 0.987591
vt 0.538462 0.993525
vt 0.538462 0.993788
vt 0.469231 1.000000
vt 0.465390 1.000000
vt 0.465552 1.000000
vt 0.469231 1.000000
vt 0.461538 0.993788
vt 0.461538 0.993525
vt 0.461538 0.987591
vt 0.465390 0.987592
vt 0.465552 0.993525
vt 0.469231 0.993788
vt 0.461538 0.881212
vt 0.461538 0.881475
vt 0.461538 0.887408
vt 0.465390 0.875000
vt 0.465552 0.875000
vt 0.469231 0.875000
vt 0.469231 0.881212
vt 0.465552 0.881475
vt 0.465390 0.887408
vt 0.538462 0.887408
vt 0.538462 0.881475
vt 0.538462 0.881212
vt 0.534610 0.887409
vt 0.534448 0.881475
vt 0.530769 0.881212
vt 0.530769 0.875000
vt 0.534448 0.875000
vt 0.534610 0.875000
vt 0.530769 1.000000
vt 0.534610 1.000000
vt 0.534448 1.000000
vt 0.530769 1.000000
vt 0.538462 0.993788
vt 0.538462 0.993525
vt 0.538462 0.987592
vt 0.534610 0.987592
vt 0.534448 0.993525
vt 0.530769 0.993788
vt 0.469231 1.000000
vt 0.469231 1.000000
vt 0.465552 1.000000
vt 0.465390 1.000000
vt 0.469231 0.993788
vt 0.465552 0.993525
vt 0.465390 0.987591
vt 0.461538 0.987592
vt 0.461538 0.993525
vt 0.461538 0.993788
vt 0.461538 0.887408
vt 0.461538 0.881475
vt 0.461538 0.881213
vt 0.465390 0.887409
vt 0.465552 0.881475
vt 0.469231 0.881212
vt 0.469231 0.875000
vt 0.465552 0.875000
vt 0.465390 0.875000
vt 0.538462 0.881212
vt 0.538462 0.881475
vt 0.538462 0.887408
vt 0.534610 0.875000
vt 0.534448 0.875000
vt 0.530769 0.875000
vt 0.530769 0.881213
vt 0.534448 0.881475
vt 0.534610 0.887408
vn 1.0000 0.0000 0.0000
vn 0.0000 1.0000 0.0000
vn 0.0000 0.0000 1.0000
vn -1.0000 0.0000 0.0000
vn 0.0000 -1.0000 0.0000
vn 0.2566 0.2566 -0.9318
vn 0.2178 0.6901 -0.6901
vn 0.2566 0.9318 -0.2566
vn 0.6901 0.6901 -0.2178
vn 0.9318 0.2566 -0.2566
vn 0.6901 0.2178 -0.6901
vn 0.5774 0.5774 -0.5773
vn -0.2566 0.2566 -0.9318
vn -0.6901 0.2178 -0.6901
vn -0.9318 0.2566 -0.2566
vn -0.6901 0.6901 -0.2178
vn -0.2566 0.9318 -0.2566
vn -0.2178 0.6901 -0.6901
vn -0.5774 0.5774 -0.5773
vn -0.9318 0.2566 0.2566
vn -0.6901 0.2178 0.6901
vn -0.2566 0.2566 0.9318
vn -0.2178 0.6901 0.6901
vn -0.2566 0.9318 0.2566
vn -0.6901 0.6901 0.2178
vn -0.5774 0.5773 0.5773
vn 0.9318 0.2566 0.2566
vn 0.6901 0.6901 0.2178
vn 0.2566 0.9318 0.2566
vn 0.2178 0.6901 0.6901
vn 0.2566 0.2566 0.9318
vn 0.6901 0.2178 0.6901
vn 0.5774 0.5774 0.5773
vn 0.2566 -0.2566 -0.9318
vn 0.6901 -0.2178 -0.6901
vn 0.9318 -0.2566 -0.2566
vn 0.6901 -0.6901 -0.2178
vn 0.2566 -0.9318 -0.2566
vn 0.2178 -0.6901 -0.6901
vn 0.5774 -0.5774 -0.5773
vn -0.2566 -0.2566 -0.9318
vn -0.2178 -0.6901 -0.6901
vn -0.2566 -0.9318 -0.2566
vn -0.6901 -0.6901 -0.2178
vn -0.9318 -0.2566 -0.2566
vn -0.6901 -0.2178 -0.6901
vn -0.5774 -0.5774 -0.5773
vn -0.9318 -0.2566 0.2566
vn -0.6901 -0.6901 0.2178
vn -0.2566 -0.9318 0.2566
vn -0.2178 -0.6901 0.6901
vn -0.2566 -0.2566 0.9318
vn -0.6901 -0.2178 0.6901
vn -0.5774 -0.5773 0.5773
vn 0.9318 -0.2566 0.2566
vn 0.6901 -0.2178 0.6901
vn 0.2566 -0.2566 0.9318
vn 0.2178 -0.6901 0.6901
vn 0.2566 -0.9318 0.2566
vn 0.6901 -0.6901 0.2178
vn 0.5774 -0.5774 0.5773
vn 0.0000 0.2585 -0.9660
vn 0.0000 0.7071 -0.7071
vn 0.0000 0.9660 -0.2585
vn -0.2585 0.9660 0.0000
vn -0.7071 0.7071 0.0000
vn -0.9660 0.2585 0.0000
vn 0.9660 0.2585 0.0000
vn 0.7071 0.7071 0.0000
vn 0.2585 0.9660 0.0000
vn 0.0000 0.9660 0.2585
vn 0.0000 0.7071 0.7071
vn 0.0000 0.2585 0.9660
vn 0.0000 -0.9660 -0.2585
vn 0.0000 -0.7071 -0.7071
vn 0.0000 -0.2585 -0.9660
vn -0.9660 -0.2585 0.0000
vn -0.7071 -0.7071 0.0000
vn -0.2585 -0.9660 0.0000
vn 0.2585 -0.9660 0.0000
vn 0.7071 -0.7071 0.0000
vn 0.9660 -0.2585 0.0000
vn 0.0000 -0.2585 0.9660
vn 0.0000 -0.7071 0.7071
vn 0.0000 -0.9660 0.2585
vn 0.9660 0.0000 -0.2585
vn 0.7071 0.0000 -0.7071
vn 0.2585 0.0000 -0.9660
vn -0.2585 0.0000 -0.9660
vn -0.7071 0.0000 -0.7071
vn -0.9660 0.0000 -0.2585
vn -0.9660 0.0000 0.2585
vn -0.7071 0.0000 0.7071
vn -0.2585 0.0000 0.9660
vn 0.2585 0.0000 0.9660
vn 0.7071 0.0000 0.7071
vn 0.9660 0.0000 0.2585
vn 0.0000 0.0000 -1.0000
usemtl None
s off
f 3/1/1 37/2/1 85/3/1 50/4/1
f 27/5/2 38/6/2 2/7/2 15/8/2
f 39/9/3 26/10/3 75/11/3 86/12/3
f 25/13/4 14/14/4 63/15/4 73/16/4
f 74/17/5 62/18/5 51/19/5 87/20/5
f 1/21/6 4/22/6 6/23/6 5/24/6
f 4/22/7 8/25/7 9/26/7 6/23/7
f 2/7/8 7/27/8 9/26/8 8/25/8
f 7/27/9 11/28/9 12/29/9 9/26/9
f 3/1/10 10/30/10 12/29/10 11/28/10
f 10/30/11 5/24/11 6/23/11 12/29/11
f 6/23/12 9/26/12 12/29/12
f 13/31/13 16/32/13 18/33/13 17/34/13
f 16/32/14 20/35/14 21/36/14 18/33/14
f 14/14/15 19/37/15 21/36/15 20/35/15
f 19/37/16 23/38/16 24/39/16 21/36/16
f 15/8/17 22/40/17 24/39/17 23/38/17
f 22/40/18 17/34/18 18/33/18 24/39/18
f 18/33/19 21/36/19 24/39/19
f 25/13/20 28/41/20 30/42/20 29/43/20
f 28/41/21 32/44/21 33/45/21 30/42/21
f 26/10/22 31/46/22 33/45/22 32/44/22
f 31/46/23 35/47/23 36/48/23 33/45/23
f 27/5/24 34/49/24 36/48/24 35/47/24
f 34/49/25 29/43/25 30/42/25 36/48/25
f 30/42/26 33/45/26 36/48/26
f 37/2/27 40/50/27 42/51/27 41/52/27
f 40/50/28 44/53/28 45/54/28 42/51/28
f 38/6/29 43/55/29 45/54/29 44/53/29
f 43/55/30 47/56/30 48/57/30 45/54/30
f 39/9/31 46/58/31 48/57/31 47/56/31
f 46/58/32 41/52/32 42/51/32 48/57/32
f 42/51/33 45/54/33 48/57/33
f 49/59/34 52/60/34 54/61/34 53/62/34
f 52/60/35 56/63/35 57/64/35 54/61/35
f 50/4/36 55/65/36 57/64/36 56/63/36
f 55/65/37 59/66/37 60/67/37 57/64/37
f 51/19/38 58/68/38 60/67/38 59/66/38
f 58/68/39 53/62/39 54/61/39 60/67/39
f 54/61/40 57/64/40 60/67/40
f 61/69/41 64/70/41 66/71/41 65/72/41
f 64/70/42 68/73/42 69/74/42 66/71/42
f 62/18/43 67/75/43 69/74/43 68/73/43
f 67/75/44 71/76/44 72/77/44 69/74/44
f 63/15/45 70/78/45 72/77/45 71/76/45
f 70/78/46 65/72/46 66/71/46 72/77/46
f 66/71/47 69/74/47 72/77/47
f 73/16/48 76/79/48 78/80/48 77/81/48
f 76/79/49 80/82/49 81/83/49 78/80/49
f 74/17/50 79/84/50 81/83/50 80/82/50
f 79/84/51 83/85/51 84/86/51 81/83/51
f 75/11/52 82/87/52 84/86/52 83/85/52
f 82/87/53 77/81/53 78/80/53 84/86/53
f 78/80/54 81/83/54 84/86/54
f 85/3/55 88/88/55 90/89/55 89/90/55
f 88/88/56 92/91/56 93/92/56 90/89/56
f 86/12/57 91/93/57 93/92/57 92/91/57
f 91/93/58 95/94/58 96/95/58 93/92/58
f 87/20/59 94/96/59 96/95/59 95/94/59
f 94/96/60 89/90/60 90/89/60 96/95/60
f 90/89/61 93/92/61 96/95/61
f 1/21/62 13/31/62 17/34/62 4/22/62
f 4/22/63 17/34/63 22/40/63 8/25/63
f 8/25/64 22/40/64 15/8/64 2/7/64
f 27/5/65 15/8/65 23/38/65 34/49/65
f 34/49/66 23/38/66 19/37/66 29/43/66
f 29/43/67 19/37/67 14/14/67 25/13/67
f 37/2/68 3/1/68 11/28/68 40/50/68
f 40/50/69 11/28/69 7/27/69 44/53/69
f 44/53/70 7/27/70 2/7/70 38/6/70
f 38/6/71 27/5/71 35/47/71 43/55/71
f 43/55/72 35/47/72 31/46/72 47/56/72
f 47/56/73 31/46/73 26/10/73 39/9/73
f 51/19/74 62/18/74 68/73/74 58/68/74
f 58/68/75 68/73/75 64/70/75 53/62/75
f 53/62/76 64/70/76 61/69/76 49/59/76
f 73/16/77 63/15/77 71/76/77 76/79/77
f 76/79/78 71/76/78 67/75/78 80/82/78
f 80/82/79 67/75/79 62/18/79 74/17/79
f 87/20/80 51/19/80 59/66/80 94/96/80
f 94/96/81 59/66/81 55/65/81 89/90/81
f 89/90/82 55/65/82 50/4/82 85/3/82
f 86/12/83 75/11/83 83/85/83 91/93/83
f 91/93/84 83/85/84 79/84/84 95/94/84
f 95/94/85 79/84/85 74/17/85 87/20/85
f 3/1/86 50/4/86 56/63/86 10/30/86
f 10/30/87 56/63/87 52/60/87 5/24/87
f 5/24/88 52/60/88 49/59/88 1/21/88
f 13/31/89 61/69/89 65/72/89 16/32/89
f 16/32/90 65/72/90 70/78/90 20/35/90
f 20/35/91 70/78/91 63/15/91 14/14/91
f 25/13/92 73/16/92 77/81/92 28/41/92
f 28/41/93 77/81/93 82/87/93 32/44/93
f 32/44/94 82/87/94 75/11/94 26/10/94
f 39/9/95 86/12/95 92/91/95 46/58/95
f 46/58/96 92/91/96 88/88/96 41/52/96
f 41/52/97 88/88/97 85/3/97 37/2/97
f 13/31/98 1/21/98 49/59/98 61/69/98
